<svg width="24" height="25" viewBox="0 0 24 25" fill="none" xmlns="http://www.w3.org/2000/svg">
<mask id="mask0_3466_30370" style="mask-type:alpha" maskUnits="userSpaceOnUse" x="0" y="0" width="24" height="25">
<rect y="0.5" width="24" height="24" fill="#D9D9D9"/>
</mask>
<g mask="url(#mask0_3466_30370)">
<path d="M13 14.5H15V11.5H18V9.5H15V6.5H13V9.5H10V11.5H13V14.5ZM8 18.5C7.45 18.5 6.97933 18.3043 6.588 17.913C6.196 17.521 6 17.05 6 16.5V4.5C6 3.95 6.196 3.479 6.588 3.087C6.97933 2.69567 7.45 2.5 8 2.5H20C20.55 2.5 21.021 2.69567 21.413 3.087C21.8043 3.479 22 3.95 22 4.5V16.5C22 17.05 21.8043 17.521 21.413 17.913C21.021 18.3043 20.55 18.5 20 18.5H8ZM8 16.5H20V4.5H8V16.5ZM4 22.5C3.45 22.5 2.97933 22.3043 2.588 21.913C2.196 21.521 2 21.05 2 20.5V6.5H4V20.5H18V22.5H4Z" fill="#8B9EB0"/>
</g>
</svg>
