<svg width="24" height="25" viewBox="0 0 24 25" fill="none" xmlns="http://www.w3.org/2000/svg">
<mask id="mask0_3466_30576" style="mask-type:alpha" maskUnits="userSpaceOnUse" x="0" y="0" width="24" height="25">
<rect y="0.5" width="24" height="24" fill="#D9D9D9"/>
</mask>
<g mask="url(#mask0_3466_30576)">
<path d="M6 13.5H15V11.5H6V13.5ZM6 10.5H15V8.5H6V10.5ZM4 20.5C3.45 20.5 2.97933 20.3043 2.588 19.913C2.196 19.521 2 19.05 2 18.5V6.5C2 5.95 2.196 5.47933 2.588 5.088C2.97933 4.696 3.45 4.5 4 4.5H20C20.55 4.5 21.021 4.696 21.413 5.088C21.8043 5.47933 22 5.95 22 6.5V18.5C22 19.05 21.8043 19.521 21.413 19.913C21.021 20.3043 20.55 20.5 20 20.5H4ZM4 18.5H20V6.5H4V18.5Z" fill="#8B9EB0"/>
</g>
</svg>
