<svg width="24" height="25" viewBox="0 0 24 25" fill="none" xmlns="http://www.w3.org/2000/svg">
<mask id="mask0_3466_30519" style="mask-type:alpha" maskUnits="userSpaceOnUse" x="0" y="0" width="24" height="25">
<rect y="0.5" width="24" height="24" fill="#D9D9D9"/>
</mask>
<g mask="url(#mask0_3466_30519)">
<path d="M16 21.475V18.475H13V16.475H16V13.475H18V16.475H21V18.475H18V21.475H16ZM4 18.5V16.5H11.075C11.025 16.85 11.004 17.1833 11.012 17.5C11.0207 17.8167 11.05 18.15 11.1 18.5H4ZM4 14.5V12.5H13.65C13.2667 12.7667 12.921 13.0667 12.613 13.4C12.3043 13.7333 12.0333 14.1 11.8 14.5H4ZM4 10.5V8.5H19V10.5H4ZM4 6.5V4.5H19V6.5H4Z" fill="#8B9EB0"/>
</g>
</svg>
