<svg width="24" height="25" viewBox="0 0 24 25" fill="none" xmlns="http://www.w3.org/2000/svg">
<mask id="mask0_3466_30546" style="mask-type:alpha" maskUnits="userSpaceOnUse" x="0" y="0" width="24" height="25">
<rect y="0.5" width="24" height="24" fill="#D9D9D9"/>
</mask>
<g mask="url(#mask0_3466_30546)">
<path d="M17 17.5C15.8 17.5 14.7417 17.121 13.825 16.363C12.9083 15.6043 12.3333 14.65 12.1 13.5H6.8C6.6 13.95 6.29167 14.3123 5.875 14.587C5.45833 14.8623 5 15 4.5 15C3.8 15 3.20833 14.7583 2.725 14.275C2.24167 13.7917 2 13.2 2 12.5C2 11.8 2.24167 11.2083 2.725 10.725C3.20833 10.2417 3.8 10 4.5 10C5 10 5.45833 10.1373 5.875 10.412C6.29167 10.6873 6.6 11.05 6.8 11.5H12.1C12.3333 10.35 12.9083 9.39567 13.825 8.637C14.7417 7.879 15.8 7.5 17 7.5C18.3833 7.5 19.5627 7.98733 20.538 8.962C21.5127 9.93733 22 11.1167 22 12.5C22 13.8833 21.5127 15.0623 20.538 16.037C19.5627 17.0123 18.3833 17.5 17 17.5ZM17 15.5C17.8333 15.5 18.5417 15.2083 19.125 14.625C19.7083 14.0417 20 13.3333 20 12.5C20 11.6667 19.7083 10.9583 19.125 10.375C18.5417 9.79167 17.8333 9.5 17 9.5C16.1667 9.5 15.4583 9.79167 14.875 10.375C14.2917 10.9583 14 11.6667 14 12.5C14 13.3333 14.2917 14.0417 14.875 14.625C15.4583 15.2083 16.1667 15.5 17 15.5Z" fill="#8B9EB0"/>
</g>
</svg>
