<svg width="24" height="25" viewBox="0 0 24 25" fill="none" xmlns="http://www.w3.org/2000/svg">
<mask id="mask0_3466_30570" style="mask-type:alpha" maskUnits="userSpaceOnUse" x="0" y="0" width="24" height="25">
<rect y="0.5" width="24" height="24" fill="#D9D9D9"/>
</mask>
<g mask="url(#mask0_3466_30570)">
<path d="M6.5 20.5C4.98333 20.5 3.68767 19.975 2.613 18.925C1.53767 17.875 1 16.5917 1 15.075C1 13.775 1.39167 12.6167 2.175 11.6C2.95833 10.5833 3.98333 9.93333 5.25 9.65C5.66667 8.11667 6.5 6.875 7.75 5.925C9 4.975 10.4167 4.5 12 4.5C13.95 4.5 15.604 5.179 16.962 6.537C18.3207 7.89567 19 9.55 19 11.5C20.15 11.6333 21.1043 12.129 21.863 12.987C22.621 13.8457 23 14.85 23 16C23 17.25 22.5627 18.3127 21.688 19.188C20.8127 20.0627 19.75 20.5 18.5 20.5H13C12.45 20.5 11.9793 20.3043 11.588 19.913C11.196 19.521 11 19.05 11 18.5V13.35L9.4 14.9L8 13.5L12 9.5L16 13.5L14.6 14.9L13 13.35V18.5H18.5C19.2 18.5 19.7917 18.2583 20.275 17.775C20.7583 17.2917 21 16.7 21 16C21 15.3 20.7583 14.7083 20.275 14.225C19.7917 13.7417 19.2 13.5 18.5 13.5H17V11.5C17 10.1167 16.5127 8.93733 15.538 7.962C14.5627 6.98733 13.3833 6.5 12 6.5C10.6167 6.5 9.43767 6.98733 8.463 7.962C7.48767 8.93733 7 10.1167 7 11.5H6.5C5.53333 11.5 4.70833 11.8417 4.025 12.525C3.34167 13.2083 3 14.0333 3 15C3 15.9667 3.34167 16.7917 4.025 17.475C4.70833 18.1583 5.53333 18.5 6.5 18.5H9V20.5H6.5Z" fill="#8B9EB0"/>
</g>
</svg>
