<?xml version="1.0" encoding="utf-8"?>
<!-- Generator: Adobe Illustrator 24.3.0, SVG Export Plug-In . SVG Version: 6.00 Build 0)  -->
<svg version="1.1" id="Layer_1" xmlns="http://www.w3.org/2000/svg" xmlns:xlink="http://www.w3.org/1999/xlink" x="0px" y="0px"
	 viewBox="0 0 370 387" style="enable-background:new 0 0 370 387;" xml:space="preserve">
<style type="text/css">
	.st0{fill:#416094;stroke:#FFE3B0;stroke-width:3;}
</style>
<path class="st0" d="M38.2,4.2l-1.1-1.1L36,4.2L3.3,36.9L2.2,38l1.1,1.1l180.3,180.3l1.1,1.1l1.1-1.1L366.1,39.1l1.1-1.1l-1.1-1.1
	L333.3,4.2l-1.1-1.1l-1.1,1.1L184.7,150.7L38.2,4.2z M38.2,168.1l-1.1-1.1l-1.1,1.1L3.3,200.9L2.2,202l1.1,1.1l180.3,180.3l1.1,1.1
	l1.1-1.1L366.1,203l1.1-1.1l-1.1-1.1l-32.8-32.8l-1.1-1.1l-1.1,1.1L184.7,314.6L38.2,168.1z"/>
</svg>
