<svg width="334" height="452" viewBox="0 0 334 452" fill="none" xmlns="http://www.w3.org/2000/svg">
<g filter="url(#filter0_d_3461_26318)">
<rect x="32" y="29" width="270" height="403" rx="8" fill="#C2C2C2"/>
</g>
<g filter="url(#filter1_dd_3461_26318)">
<rect x="32" y="16" width="270" height="76" rx="16" fill="white"/>
<path d="M84.8 59H83.3H81.8H80.3H78.8H77.3V57.5H75.8V56V54.5V53V51.5V50H77.3V48.5H78.8H80.3H81.8H83.3H84.8H86.3V50V51.5H84.8H83.3H81.8H80.3H78.8V53V54.5V56H80.3H81.8H83.3H84.8H86.3V57.5V59H84.8ZM95.36 59H93.86H92.36H90.86H89.36V57.5H87.86V56V54.5V53V51.5V50H89.36V48.5H90.86H92.36H93.86H95.36H96.86V50H98.36V51.5V53V54.5V56V57.5H96.86V59H95.36ZM93.86 56H95.36V54.5V53V51.5H93.86H92.36H90.86V53V54.5V56H92.36H93.86ZM108.92 59H107.42V57.5V56H105.92V54.5H104.42V53H102.92V54.5V56V57.5V59H101.42H99.92V57.5V56V54.5V53V51.5V50V48.5H101.42H102.92V50H104.42V51.5H105.92V53H107.42V51.5V50V48.5H108.92H110.42V50V51.5V53V54.5V56V57.5V59H108.92ZM116.48 59H114.98V57.5V56V54.5V53V51.5H113.48H111.98V50V48.5H113.48H114.98H116.48H117.98H119.48H120.98V50V51.5H119.48H117.98V53V54.5V56V57.5V59H116.48ZM131.54 59H130.04H128.54H127.04H125.54H124.04H122.54V57.5V56V54.5V53V51.5V50V48.5H124.04H125.54H127.04H128.54H130.04H131.54H133.04V50V51.5H131.54H130.04H128.54H127.04H125.54V53H127.04H128.54H130.04V54.5H128.54H127.04H125.54V56H127.04H128.54H130.04H131.54H133.04V57.5V59H131.54ZM143.6 59H142.1V57.5V56H140.6V54.5H139.1V53H137.6V54.5V56V57.5V59H136.1H134.6V57.5V56V54.5V53V51.5V50V48.5H136.1H137.6V50H139.1V51.5H140.6V53H142.1V51.5V50V48.5H143.6H145.1V50V51.5V53V54.5V56V57.5V59H143.6ZM151.16 59H149.66V57.5V56V54.5V53V51.5H148.16H146.66V50V48.5H148.16H149.66H151.16H152.66H154.16H155.66V50V51.5H154.16H152.66V53V54.5V56V57.5V59H151.16ZM169.28 59H167.78V57.5V56V54.5V53V51.5H166.28H164.78V50V48.5H166.28H167.78H169.28H170.78H172.28H173.78V50V51.5H172.28H170.78V53V54.5V56V57.5V59H169.28ZM184.34 59H182.84H181.34H179.84H178.34H176.84H175.34V57.5V56V54.5V53V51.5V50V48.5H176.84H178.34H179.84H181.34H182.84H184.34H185.84V50V51.5H184.34H182.84H181.34H179.84H178.34V53H179.84H181.34H182.84V54.5H181.34H179.84H178.34V56H179.84H181.34H182.84H184.34H185.84V57.5V59H184.34ZM191.9 54.5V53H190.4V54.5V56V57.5V59H188.9H187.4V57.5V56V54.5V53V51.5V50V48.5H188.9H190.4V50H191.9V51.5H193.4V50H194.9V48.5H196.4H197.9V50V51.5V53V54.5V56V57.5V59H196.4H194.9V57.5V56V54.5V53H193.4V54.5H191.9ZM200.96 59H199.46V57.5V56V54.5V53V51.5V50V48.5H200.96H202.46H203.96H205.46H206.96H208.46V50H209.96V51.5V53V54.5H208.46V56H206.96H205.46H203.96H202.46V57.5V59H200.96ZM205.46 53H206.96V51.5H205.46H203.96H202.46V53H203.96H205.46ZM220.52 59H219.02H217.52H216.02H214.52H213.02H211.52V57.5V56V54.5V53V51.5V50V48.5H213.02H214.52V50V51.5V53V54.5V56H216.02H217.52H219.02H220.52H222.02V57.5V59H220.52ZM232.58 59H231.08V57.5V56H229.58H228.08H226.58V57.5V59H225.08H223.58V57.5V56V54.5V53V51.5V50H225.08V48.5H226.58H228.08H229.58H231.08H232.58V50H234.08V51.5V53V54.5V56V57.5V59H232.58ZM229.58 53H231.08V51.5H229.58H228.08H226.58V53H228.08H229.58ZM240.14 59H238.64V57.5V56V54.5V53V51.5H237.14H235.64V50V48.5H237.14H238.64H240.14H241.64H243.14H244.64V50V51.5H243.14H241.64V53V54.5V56V57.5V59H240.14ZM255.2 59H253.7H252.2H250.7H249.2H247.7H246.2V57.5V56V54.5V53V51.5V50V48.5H247.7H249.2H250.7H252.2H253.7H255.2H256.7V50V51.5H255.2H253.7H252.2H250.7H249.2V53H250.7H252.2H253.7V54.5H252.2H250.7H249.2V56H250.7H252.2H253.7H255.2H256.7V57.5V59H255.2Z" fill="#302F2F"/>
</g>
<rect x="33" y="134" width="269" height="74" rx="10" fill="#696969"/>
<rect x="86" y="182" width="165" height="178" rx="10" fill="#D9D9D9"/>
<rect x="179" y="336" width="54" height="16" rx="8" fill="#3EA528"/>
<rect x="56" y="378" width="56" height="32" rx="10" fill="#D9D9D9"/>
<rect x="121" y="378" width="56" height="32" rx="10" fill="#D9D9D9"/>
<rect x="187" y="378" width="56" height="32" rx="10" fill="#D9D9D9"/>
<rect x="250" y="378" width="45" height="32" rx="10" fill="#D9D9D9"/>
<defs>
<filter id="filter0_d_3461_26318" x="20" y="25" width="294" height="427" filterUnits="userSpaceOnUse" color-interpolation-filters="sRGB">
<feFlood flood-opacity="0" result="BackgroundImageFix"/>
<feColorMatrix in="SourceAlpha" type="matrix" values="0 0 0 0 0 0 0 0 0 0 0 0 0 0 0 0 0 0 127 0" result="hardAlpha"/>
<feMorphology radius="4" operator="erode" in="SourceAlpha" result="effect1_dropShadow_3461_26318"/>
<feOffset dy="8"/>
<feGaussianBlur stdDeviation="8"/>
<feColorMatrix type="matrix" values="0 0 0 0 0.188235 0 0 0 0 0.184314 0 0 0 0 0.184314 0 0 0 0.08 0"/>
<feBlend mode="normal" in2="BackgroundImageFix" result="effect1_dropShadow_3461_26318"/>
<feBlend mode="normal" in="SourceGraphic" in2="effect1_dropShadow_3461_26318" result="shape"/>
</filter>
<filter id="filter1_dd_3461_26318" x="0" y="0" width="334" height="140" filterUnits="userSpaceOnUse" color-interpolation-filters="sRGB">
<feFlood flood-opacity="0" result="BackgroundImageFix"/>
<feColorMatrix in="SourceAlpha" type="matrix" values="0 0 0 0 0 0 0 0 0 0 0 0 0 0 0 0 0 0 127 0" result="hardAlpha"/>
<feOffset dy="16"/>
<feGaussianBlur stdDeviation="16"/>
<feColorMatrix type="matrix" values="0 0 0 0 0.254902 0 0 0 0 0.376471 0 0 0 0 0.580392 0 0 0 0.16 0"/>
<feBlend mode="normal" in2="BackgroundImageFix" result="effect1_dropShadow_3461_26318"/>
<feColorMatrix in="SourceAlpha" type="matrix" values="0 0 0 0 0 0 0 0 0 0 0 0 0 0 0 0 0 0 127 0" result="hardAlpha"/>
<feMorphology radius="4" operator="erode" in="SourceAlpha" result="effect2_dropShadow_3461_26318"/>
<feOffset dy="4"/>
<feGaussianBlur stdDeviation="6"/>
<feColorMatrix type="matrix" values="0 0 0 0 0.0862745 0 0 0 0 0.133333 0 0 0 0 0.2 0 0 0 0.12 0"/>
<feBlend mode="normal" in2="effect1_dropShadow_3461_26318" result="effect2_dropShadow_3461_26318"/>
<feBlend mode="normal" in="SourceGraphic" in2="effect2_dropShadow_3461_26318" result="shape"/>
</filter>
</defs>
</svg>
