<svg width="334" height="452" viewBox="0 0 334 452" fill="none" xmlns="http://www.w3.org/2000/svg">
<g filter="url(#filter0_d_3461_26341)">
<rect x="32" y="29" width="270" height="403" rx="8" fill="#C2C2C2"/>
</g>
<g filter="url(#filter1_dd_3461_26341)">
<rect x="32" y="16" width="270" height="76" rx="16" fill="white"/>
<path d="M96.11 59H94.61H93.11H91.61H90.11H88.61H87.11V57.5V56V54.5V53V51.5V50V48.5H88.61H90.11H91.61H93.11H94.61H96.11H97.61V50V51.5H96.11H94.61H93.11H91.61H90.11V53H91.61H93.11H94.61V54.5H93.11H91.61H90.11V56H91.61H93.11H94.61H96.11H97.61V57.5V59H96.11ZM103.67 59V57.5H102.17V56V54.5H100.67V53V51.5H99.17V50V48.5H100.67H102.17V50V51.5H103.67V53V54.5H105.17V53V51.5H106.67V50V48.5H108.17H109.67V50V51.5H108.17V53V54.5H106.67V56V57.5H105.17V59H103.67ZM120.23 59H118.73H117.23H115.73H114.23H112.73H111.23V57.5V56V54.5V53V51.5V50V48.5H112.73H114.23H115.73H117.23H118.73H120.23H121.73V50V51.5H120.23H118.73H117.23H115.73H114.23V53H115.73H117.23H118.73V54.5H117.23H115.73H114.23V56H115.73H117.23H118.73H120.23H121.73V57.5V59H120.23ZM132.29 59H130.79V57.5V56H129.29V54.5H127.79V53H126.29V54.5V56V57.5V59H124.79H123.29V57.5V56V54.5V53V51.5V50V48.5H124.79H126.29V50H127.79V51.5H129.29V53H130.79V51.5V50V48.5H132.29H133.79V50V51.5V53V54.5V56V57.5V59H132.29ZM139.85 59H138.35V57.5V56V54.5V53V51.5H136.85H135.35V50V48.5H136.85H138.35H139.85H141.35H142.85H144.35V50V51.5H142.85H141.35V53V54.5V56V57.5V59H139.85ZM157.97 59H156.47V57.5V56V54.5V53V51.5H154.97H153.47V50V48.5H154.97H156.47H157.97H159.47H160.97H162.47V50V51.5H160.97H159.47V53V54.5V56V57.5V59H157.97ZM173.03 59H171.53H170.03H168.53H167.03H165.53H164.03V57.5V56V54.5V53V51.5V50V48.5H165.53H167.03H168.53H170.03H171.53H173.03H174.53V50V51.5H173.03H171.53H170.03H168.53H167.03V53H168.53H170.03H171.53V54.5H170.03H168.53H167.03V56H168.53H170.03H171.53H173.03H174.53V57.5V59H173.03ZM180.59 54.5V53H179.09V54.5V56V57.5V59H177.59H176.09V57.5V56V54.5V53V51.5V50V48.5H177.59H179.09V50H180.59V51.5H182.09V50H183.59V48.5H185.09H186.59V50V51.5V53V54.5V56V57.5V59H185.09H183.59V57.5V56V54.5V53H182.09V54.5H180.59ZM189.65 59H188.15V57.5V56V54.5V53V51.5V50V48.5H189.65H191.15H192.65H194.15H195.65H197.15V50H198.65V51.5V53V54.5H197.15V56H195.65H194.15H192.65H191.15V57.5V59H189.65ZM194.15 53H195.65V51.5H194.15H192.65H191.15V53H192.65H194.15ZM209.21 59H207.71H206.21H204.71H203.21H201.71H200.21V57.5V56V54.5V53V51.5V50V48.5H201.71H203.21V50V51.5V53V54.5V56H204.71H206.21H207.71H209.21H210.71V57.5V59H209.21ZM221.27 59H219.77V57.5V56H218.27H216.77H215.27V57.5V59H213.77H212.27V57.5V56V54.5V53V51.5V50H213.77V48.5H215.27H216.77H218.27H219.77H221.27V50H222.77V51.5V53V54.5V56V57.5V59H221.27ZM218.27 53H219.77V51.5H218.27H216.77H215.27V53H216.77H218.27ZM228.83 59H227.33V57.5V56V54.5V53V51.5H225.83H224.33V50V48.5H225.83H227.33H228.83H230.33H231.83H233.33V50V51.5H231.83H230.33V53V54.5V56V57.5V59H228.83ZM243.89 59H242.39H240.89H239.39H237.89H236.39H234.89V57.5V56V54.5V53V51.5V50V48.5H236.39H237.89H239.39H240.89H242.39H243.89H245.39V50V51.5H243.89H242.39H240.89H239.39H237.89V53H239.39H240.89H242.39V54.5H240.89H239.39H237.89V56H239.39H240.89H242.39H243.89H245.39V57.5V59H243.89Z" fill="#302F2F"/>
</g>
<rect x="56" y="222" width="56" height="56" rx="10" fill="#D9D9D9"/>
<rect x="56" y="222" width="56" height="56" rx="10" fill="#D9D9D9"/>
<rect x="56" y="378" width="56" height="32" rx="10" fill="#D9D9D9"/>
<rect x="121" y="378" width="56" height="32" rx="10" fill="#D9D9D9"/>
<rect x="187" y="378" width="56" height="32" rx="10" fill="#D9D9D9"/>
<rect x="250" y="378" width="45" height="32" rx="10" fill="#D9D9D9"/>
<rect x="135" y="222" width="144" height="102" rx="10" fill="#696969"/>
<rect x="33" y="134" width="269" height="74" rx="10" fill="#696969"/>
<rect x="86" y="147" width="165" height="48" rx="10" fill="#D9D9D9"/>
<rect x="143" y="232" width="128" height="32" rx="10" fill="#D9D9D9"/>
<rect x="143" y="278" width="128" height="32" rx="10" fill="#D9D9D9"/>
<rect x="179" y="336" width="54" height="16" rx="8" fill="#3EA528"/>
<rect x="225" y="104" width="54" height="16" rx="8" fill="#D9D9D9"/>
<circle cx="64" cy="112" r="8" fill="#D9D9D9"/>
<circle cx="110" cy="112" r="8" fill="#D9D9D9"/>
<circle cx="155" cy="112" r="8" fill="#D9D9D9"/>
<defs>
<filter id="filter0_d_3461_26341" x="20" y="25" width="294" height="427" filterUnits="userSpaceOnUse" color-interpolation-filters="sRGB">
<feFlood flood-opacity="0" result="BackgroundImageFix"/>
<feColorMatrix in="SourceAlpha" type="matrix" values="0 0 0 0 0 0 0 0 0 0 0 0 0 0 0 0 0 0 127 0" result="hardAlpha"/>
<feMorphology radius="4" operator="erode" in="SourceAlpha" result="effect1_dropShadow_3461_26341"/>
<feOffset dy="8"/>
<feGaussianBlur stdDeviation="8"/>
<feColorMatrix type="matrix" values="0 0 0 0 0.188235 0 0 0 0 0.184314 0 0 0 0 0.184314 0 0 0 0.08 0"/>
<feBlend mode="normal" in2="BackgroundImageFix" result="effect1_dropShadow_3461_26341"/>
<feBlend mode="normal" in="SourceGraphic" in2="effect1_dropShadow_3461_26341" result="shape"/>
</filter>
<filter id="filter1_dd_3461_26341" x="0" y="0" width="334" height="140" filterUnits="userSpaceOnUse" color-interpolation-filters="sRGB">
<feFlood flood-opacity="0" result="BackgroundImageFix"/>
<feColorMatrix in="SourceAlpha" type="matrix" values="0 0 0 0 0 0 0 0 0 0 0 0 0 0 0 0 0 0 127 0" result="hardAlpha"/>
<feOffset dy="16"/>
<feGaussianBlur stdDeviation="16"/>
<feColorMatrix type="matrix" values="0 0 0 0 0.254902 0 0 0 0 0.376471 0 0 0 0 0.580392 0 0 0 0.16 0"/>
<feBlend mode="normal" in2="BackgroundImageFix" result="effect1_dropShadow_3461_26341"/>
<feColorMatrix in="SourceAlpha" type="matrix" values="0 0 0 0 0 0 0 0 0 0 0 0 0 0 0 0 0 0 127 0" result="hardAlpha"/>
<feMorphology radius="4" operator="erode" in="SourceAlpha" result="effect2_dropShadow_3461_26341"/>
<feOffset dy="4"/>
<feGaussianBlur stdDeviation="6"/>
<feColorMatrix type="matrix" values="0 0 0 0 0.0862745 0 0 0 0 0.133333 0 0 0 0 0.2 0 0 0 0.12 0"/>
<feBlend mode="normal" in2="effect1_dropShadow_3461_26341" result="effect2_dropShadow_3461_26341"/>
<feBlend mode="normal" in="SourceGraphic" in2="effect2_dropShadow_3461_26341" result="shape"/>
</filter>
</defs>
</svg>
