<svg width="334" height="452" viewBox="0 0 334 452" fill="none" xmlns="http://www.w3.org/2000/svg">
<g filter="url(#filter0_d_3461_26255)">
<rect x="32" y="29" width="270" height="403" rx="8" fill="#C2C2C2"/>
</g>
<g filter="url(#filter1_dd_3461_26255)">
<rect x="32" y="16" width="270" height="76" rx="16" fill="white"/>
<path d="M101.39 59H99.89H98.39H96.89H95.39H93.89V57.5H92.39V56V54.5V53V51.5V50H93.89V48.5H95.39H96.89H98.39H99.89H101.39H102.89V50V51.5H101.39H99.89H98.39H96.89H95.39V53V54.5V56H96.89H98.39H99.89V54.5H98.39H96.89V53H98.39H99.89H101.39H102.89V54.5V56V57.5V59H101.39ZM111.95 59H110.45H108.95H107.45H105.95V57.5H104.45V56V54.5V53V51.5V50H105.95V48.5H107.45H108.95H110.45H111.95H113.45V50H114.95V51.5V53V54.5V56V57.5H113.45V59H111.95ZM110.45 56H111.95V54.5V53V51.5H110.45H108.95H107.45V53V54.5V56H108.95H110.45ZM125.51 59H124.01V57.5V56H122.51H121.01H119.51V57.5V59H118.01H116.51V57.5V56V54.5V53V51.5V50H118.01V48.5H119.51H121.01H122.51H124.01H125.51V50H127.01V51.5V53V54.5V56V57.5V59H125.51ZM122.51 53H124.01V51.5H122.51H121.01H119.51V53H121.01H122.51ZM137.57 59H136.07H134.57H133.07H131.57H130.07H128.57V57.5V56V54.5V53V51.5V50V48.5H130.07H131.57V50V51.5V53V54.5V56H133.07H134.57H136.07H137.57H139.07V57.5V59H137.57ZM152.69 59H151.19V57.5V56V54.5V53V51.5H149.69H148.19V50V48.5H149.69H151.19H152.69H154.19H155.69H157.19V50V51.5H155.69H154.19V53V54.5V56V57.5V59H152.69ZM167.75 59H166.25H164.75H163.25H161.75H160.25H158.75V57.5V56V54.5V53V51.5V50V48.5H160.25H161.75H163.25H164.75H166.25H167.75H169.25V50V51.5H167.75H166.25H164.75H163.25H161.75V53H163.25H164.75H166.25V54.5H164.75H163.25H161.75V56H163.25H164.75H166.25H167.75H169.25V57.5V59H167.75ZM175.31 54.5V53H173.81V54.5V56V57.5V59H172.31H170.81V57.5V56V54.5V53V51.5V50V48.5H172.31H173.81V50H175.31V51.5H176.81V50H178.31V48.5H179.81H181.31V50V51.5V53V54.5V56V57.5V59H179.81H178.31V57.5V56V54.5V53H176.81V54.5H175.31ZM184.37 59H182.87V57.5V56V54.5V53V51.5V50V48.5H184.37H185.87H187.37H188.87H190.37H191.87V50H193.37V51.5V53V54.5H191.87V56H190.37H188.87H187.37H185.87V57.5V59H184.37ZM188.87 53H190.37V51.5H188.87H187.37H185.87V53H187.37H188.87ZM203.93 59H202.43H200.93H199.43H197.93H196.43H194.93V57.5V56V54.5V53V51.5V50V48.5H196.43H197.93V50V51.5V53V54.5V56H199.43H200.93H202.43H203.93H205.43V57.5V59H203.93ZM215.99 59H214.49V57.5V56H212.99H211.49H209.99V57.5V59H208.49H206.99V57.5V56V54.5V53V51.5V50H208.49V48.5H209.99H211.49H212.99H214.49H215.99V50H217.49V51.5V53V54.5V56V57.5V59H215.99ZM212.99 53H214.49V51.5H212.99H211.49H209.99V53H211.49H212.99ZM223.55 59H222.05V57.5V56V54.5V53V51.5H220.55H219.05V50V48.5H220.55H222.05H223.55H225.05H226.55H228.05V50V51.5H226.55H225.05V53V54.5V56V57.5V59H223.55ZM238.61 59H237.11H235.61H234.11H232.61H231.11H229.61V57.5V56V54.5V53V51.5V50V48.5H231.11H232.61H234.11H235.61H237.11H238.61H240.11V50V51.5H238.61H237.11H235.61H234.11H232.61V53H234.11H235.61H237.11V54.5H235.61H234.11H232.61V56H234.11H235.61H237.11H238.61H240.11V57.5V59H238.61Z" fill="#302F2F"/>
</g>
<rect x="56" y="222" width="56" height="56" rx="10" fill="#D9D9D9"/>
<rect x="56" y="222" width="56" height="56" rx="10" fill="#D9D9D9"/>
<rect x="56" y="378" width="56" height="32" rx="10" fill="#D9D9D9"/>
<rect x="121" y="378" width="56" height="32" rx="10" fill="#D9D9D9"/>
<rect x="187" y="378" width="56" height="32" rx="10" fill="#D9D9D9"/>
<rect x="250" y="378" width="45" height="32" rx="10" fill="#D9D9D9"/>
<rect x="135" y="222" width="144" height="102" rx="10" fill="#696969"/>
<rect x="33" y="134" width="269" height="74" rx="10" fill="#696969"/>
<rect x="86" y="147" width="165" height="48" rx="10" fill="#D9D9D9"/>
<rect x="143" y="232" width="128" height="32" rx="10" fill="#D9D9D9"/>
<rect x="143" y="278" width="128" height="32" rx="10" fill="#D9D9D9"/>
<rect x="179" y="336" width="54" height="16" rx="8" fill="#3EA528"/>
<rect x="225" y="104" width="54" height="16" rx="8" fill="#D9D9D9"/>
<circle cx="64" cy="112" r="8" fill="#D9D9D9"/>
<circle cx="110" cy="112" r="8" fill="#D9D9D9"/>
<circle cx="155" cy="112" r="8" fill="#D9D9D9"/>
<defs>
<filter id="filter0_d_3461_26255" x="20" y="25" width="294" height="427" filterUnits="userSpaceOnUse" color-interpolation-filters="sRGB">
<feFlood flood-opacity="0" result="BackgroundImageFix"/>
<feColorMatrix in="SourceAlpha" type="matrix" values="0 0 0 0 0 0 0 0 0 0 0 0 0 0 0 0 0 0 127 0" result="hardAlpha"/>
<feMorphology radius="4" operator="erode" in="SourceAlpha" result="effect1_dropShadow_3461_26255"/>
<feOffset dy="8"/>
<feGaussianBlur stdDeviation="8"/>
<feColorMatrix type="matrix" values="0 0 0 0 0.188235 0 0 0 0 0.184314 0 0 0 0 0.184314 0 0 0 0.08 0"/>
<feBlend mode="normal" in2="BackgroundImageFix" result="effect1_dropShadow_3461_26255"/>
<feBlend mode="normal" in="SourceGraphic" in2="effect1_dropShadow_3461_26255" result="shape"/>
</filter>
<filter id="filter1_dd_3461_26255" x="0" y="0" width="334" height="140" filterUnits="userSpaceOnUse" color-interpolation-filters="sRGB">
<feFlood flood-opacity="0" result="BackgroundImageFix"/>
<feColorMatrix in="SourceAlpha" type="matrix" values="0 0 0 0 0 0 0 0 0 0 0 0 0 0 0 0 0 0 127 0" result="hardAlpha"/>
<feOffset dy="16"/>
<feGaussianBlur stdDeviation="16"/>
<feColorMatrix type="matrix" values="0 0 0 0 0.254902 0 0 0 0 0.376471 0 0 0 0 0.580392 0 0 0 0.16 0"/>
<feBlend mode="normal" in2="BackgroundImageFix" result="effect1_dropShadow_3461_26255"/>
<feColorMatrix in="SourceAlpha" type="matrix" values="0 0 0 0 0 0 0 0 0 0 0 0 0 0 0 0 0 0 127 0" result="hardAlpha"/>
<feMorphology radius="4" operator="erode" in="SourceAlpha" result="effect2_dropShadow_3461_26255"/>
<feOffset dy="4"/>
<feGaussianBlur stdDeviation="6"/>
<feColorMatrix type="matrix" values="0 0 0 0 0.0862745 0 0 0 0 0.133333 0 0 0 0 0.2 0 0 0 0.12 0"/>
<feBlend mode="normal" in2="effect1_dropShadow_3461_26255" result="effect2_dropShadow_3461_26255"/>
<feBlend mode="normal" in="SourceGraphic" in2="effect2_dropShadow_3461_26255" result="shape"/>
</filter>
</defs>
</svg>
