<svg width="30" height="30" viewBox="0 0 30 30" fill="none" xmlns="http://www.w3.org/2000/svg">
<path d="M3.33333 30C2.41667 30 1.63167 29.6739 0.978333 29.0217C0.326111 28.3683 0 27.5833 0 26.6667V16.6667H3.33333V26.6667H13.3333V30H3.33333ZM16.6667 30V26.6667H26.6667V16.6667H30V26.6667C30 27.5833 29.6739 28.3683 29.0217 29.0217C28.3683 29.6739 27.5833 30 26.6667 30H16.6667ZM5 23.3333L10 16.6667L13.75 21.6667L18.75 15L25 23.3333H5ZM0 13.3333V3.33333C0 2.41667 0.326111 1.63167 0.978333 0.978333C1.63167 0.326111 2.41667 0 3.33333 0H13.3333V3.33333H3.33333V13.3333H0ZM26.6667 13.3333V3.33333H16.6667V0H26.6667C27.5833 0 28.3683 0.326111 29.0217 0.978333C29.6739 1.63167 30 2.41667 30 3.33333V13.3333H26.6667ZM20.8333 11.6667C20.1111 11.6667 19.5139 11.4306 19.0417 10.9583C18.5694 10.4861 18.3333 9.88889 18.3333 9.16667C18.3333 8.44444 18.5694 7.84722 19.0417 7.375C19.5139 6.90278 20.1111 6.66667 20.8333 6.66667C21.5556 6.66667 22.1528 6.90278 22.625 7.375C23.0972 7.84722 23.3333 8.44444 23.3333 9.16667C23.3333 9.88889 23.0972 10.4861 22.625 10.9583C22.1528 11.4306 21.5556 11.6667 20.8333 11.6667Z" fill="#5E6366"/>
</svg>
