<svg width="417" height="417" viewBox="0 0 417 417" fill="none" xmlns="http://www.w3.org/2000/svg">
<path d="M208.438 0.622864C93.7485 0.622864 0.438477 93.9329 0.438477 208.623C0.438477 323.313 93.7485 416.623 208.438 416.623C323.128 416.623 416.438 323.313 416.438 208.623C416.438 93.9329 323.128 0.622864 208.438 0.622864ZM208.438 320.533C204.483 320.533 200.616 319.36 197.327 317.162C194.038 314.965 191.475 311.841 189.961 308.187C188.447 304.532 188.051 300.511 188.823 296.631C189.594 292.751 191.499 289.188 194.296 286.391C197.093 283.594 200.657 281.689 204.537 280.917C208.416 280.145 212.438 280.542 216.092 282.055C219.747 283.569 222.87 286.132 225.068 289.421C227.265 292.71 228.438 296.577 228.438 300.533C228.438 305.837 226.331 310.924 222.581 314.675C218.83 318.426 213.743 320.533 208.438 320.533ZM230.158 119.383L224.418 241.383C224.418 245.626 222.733 249.696 219.732 252.697C216.732 255.697 212.662 257.383 208.418 257.383C204.175 257.383 200.105 255.697 197.105 252.697C194.104 249.696 192.418 245.626 192.418 241.383L186.678 119.443V119.393C186.553 116.462 187.021 113.536 188.056 110.791C189.091 108.047 190.671 105.54 192.7 103.421C194.729 101.303 197.166 99.6174 199.864 98.4658C202.562 97.3142 205.465 96.7206 208.398 96.7206C211.332 96.7206 214.235 97.3142 216.933 98.4658C219.631 99.6174 222.068 101.303 224.097 103.421C226.126 105.54 227.706 108.047 228.741 110.791C229.776 113.536 230.244 116.462 230.118 119.393L230.158 119.383Z" fill="#BF2E3C"/>
</svg>
