<svg width="416" height="416" viewBox="0 0 416 416" fill="none" xmlns="http://www.w3.org/2000/svg">
<path d="M208 0C93.31 0 0 93.31 0 208C0 322.69 93.31 416 208 416C322.69 416 416 322.69 416 208C416 93.31 322.69 0 208 0ZM282.77 217.3L168.32 286.44C166.68 287.423 164.807 287.952 162.895 287.972C160.983 287.992 159.099 287.504 157.438 286.556C155.777 285.609 154.398 284.236 153.442 282.58C152.487 280.923 151.989 279.042 152 277.13V138.87C151.989 136.958 152.487 135.077 153.442 133.42C154.398 131.764 155.777 130.391 157.438 129.444C159.099 128.496 160.983 128.008 162.895 128.028C164.807 128.048 166.68 128.577 168.32 129.56L282.77 198.7C284.365 199.672 285.684 201.038 286.599 202.667C287.514 204.295 287.994 206.132 287.994 208C287.994 209.868 287.514 211.705 286.599 213.333C285.684 214.962 284.365 216.328 282.77 217.3Z" fill="#0F934C"/>
<path d="M168.32 286.413L282.77 217.273C284.365 216.301 285.684 214.935 286.599 213.306C287.514 211.677 287.994 209.841 287.994 207.973C287.994 206.105 287.514 204.268 286.599 202.639C285.684 201.01 284.365 199.644 282.77 198.673L168.32 129.533C166.68 128.55 164.807 128.021 162.895 128.001C160.983 127.98 159.1 128.469 157.438 129.416C155.777 130.364 154.398 131.736 153.443 133.393C152.487 135.049 151.989 136.93 152 138.843V277.103C151.989 279.015 152.487 280.896 153.443 282.552C154.398 284.209 155.777 285.581 157.438 286.529C159.1 287.476 160.983 287.965 162.895 287.945C164.807 287.924 166.68 287.395 168.32 286.413Z" fill="white"/>
</svg>
