<svg width="368" height="452" viewBox="0 0 368 452" fill="none" xmlns="http://www.w3.org/2000/svg">
<g clip-path="url(#clip0_4387_27016)">
<g filter="url(#filter0_d_4387_27016)">
<path d="M311 29H57C52.5817 29 49 32.5817 49 37V424C49 428.418 52.5817 432 57 432H311C315.418 432 319 428.418 319 424V37C319 32.5817 315.418 29 311 29Z" fill="#C2C2C2"/>
</g>
<g filter="url(#filter1_dd_4387_27016)">
<path d="M303 16H65C56.1634 16 49 23.1634 49 32V76C49 84.8366 56.1634 92 65 92H303C311.837 92 319 84.8366 319 76V32C319 23.1634 311.837 16 303 16Z" fill="white"/>
<path d="M96.5508 59H95.0508V57.5V56V54.5V53V51.5V50V48.5H96.5508H98.0508H99.5508H101.051H102.551H104.051V50H105.551V51.5V53V54.5H104.051V56H102.551H101.051H99.5508H98.0508V57.5V59H96.5508ZM101.051 53H102.551V51.5H101.051H99.5508H98.0508V53H99.5508H101.051ZM116.111 59H114.611V57.5V56H113.111H111.611H110.111V57.5V59H108.611H107.111V57.5V56V54.5V53V51.5V50V48.5H108.611H110.111H111.611H113.111H114.611H116.111V50H117.611V51.5V53V54.5H116.111V56H117.611V57.5V59H116.111ZM113.111 53H114.611V51.5H113.111H111.611H110.111V53H111.611H113.111ZM126.671 59H125.171H123.671H122.171H120.671V57.5H119.171V56V54.5V53V51.5V50H120.671V48.5H122.171H123.671H125.171H126.671H128.171V50H129.671V51.5V53V54.5V56V57.5H128.171V59H126.671ZM125.171 56H126.671V54.5V53V51.5H125.171H123.671H122.171V53V54.5V56H123.671H125.171ZM132.731 59H131.231V57.5V56V54.5V53V51.5V50V48.5H132.731H134.231H135.731H137.231H138.731H140.231H141.731V50V51.5H140.231H138.731H137.231H135.731H134.231V53H135.731H137.231H138.731V54.5V56H137.231H135.731H134.231V57.5V59H132.731ZM144.791 59H143.291V57.5V56V54.5V53V51.5V50V48.5H144.791H146.291V50V51.5V53V54.5V56V57.5V59H144.791ZM156.851 59H155.351H153.851H152.351H150.851H149.351H147.851V57.5V56V54.5V53V51.5V50V48.5H149.351H150.851V50V51.5V53V54.5V56H152.351H153.851H155.351H156.851H158.351V57.5V59H156.851ZM168.911 59H167.411H165.911H164.411H162.911H161.411H159.911V57.5V56V54.5V53V51.5V50V48.5H161.411H162.911H164.411H165.911H167.411H168.911H170.411V50V51.5H168.911H167.411H165.911H164.411H162.911V53H164.411H165.911H167.411V54.5H165.911H164.411H162.911V56H164.411H165.911H167.411H168.911H170.411V57.5V59H168.911ZM184.031 59H182.531V57.5V56V54.5V53V51.5H181.031H179.531V50V48.5H181.031H182.531H184.031H185.531H187.031H188.531V50V51.5H187.031H185.531V53V54.5V56V57.5V59H184.031ZM199.091 59H197.591H196.091H194.591H193.091H191.591H190.091V57.5V56V54.5V53V51.5V50V48.5H191.591H193.091H194.591H196.091H197.591H199.091H200.591V50V51.5H199.091H197.591H196.091H194.591H193.091V53H194.591H196.091H197.591V54.5H196.091H194.591H193.091V56H194.591H196.091H197.591H199.091H200.591V57.5V59H199.091ZM206.651 54.5V53H205.151V54.5V56V57.5V59H203.651H202.151V57.5V56V54.5V53V51.5V50V48.5H203.651H205.151V50H206.651V51.5H208.151V50H209.651V48.5H211.151H212.651V50V51.5V53V54.5V56V57.5V59H211.151H209.651V57.5V56V54.5V53H208.151V54.5H206.651ZM215.711 59H214.211V57.5V56V54.5V53V51.5V50V48.5H215.711H217.211H218.711H220.211H221.711H223.211V50H224.711V51.5V53V54.5H223.211V56H221.711H220.211H218.711H217.211V57.5V59H215.711ZM220.211 53H221.711V51.5H220.211H218.711H217.211V53H218.711H220.211ZM235.271 59H233.771H232.271H230.771H229.271H227.771H226.271V57.5V56V54.5V53V51.5V50V48.5H227.771H229.271V50V51.5V53V54.5V56H230.771H232.271H233.771H235.271H236.771V57.5V59H235.271ZM247.331 59H245.831V57.5V56H244.331H242.831H241.331V57.5V59H239.831H238.331V57.5V56V54.5V53V51.5V50H239.831V48.5H241.331H242.831H244.331H245.831H247.331V50H248.831V51.5V53V54.5V56V57.5V59H247.331ZM244.331 53H245.831V51.5H244.331H242.831H241.331V53H242.831H244.331ZM254.891 59H253.391V57.5V56V54.5V53V51.5H251.891H250.391V50V48.5H251.891H253.391H254.891H256.391H257.891H259.391V50V51.5H257.891H256.391V53V54.5V56V57.5V59H254.891ZM269.951 59H268.451H266.951H265.451H263.951H262.451H260.951V57.5V56V54.5V53V51.5V50V48.5H262.451H263.951H265.451H266.951H268.451H269.951H271.451V50V51.5H269.951H268.451H266.951H265.451H263.951V53H265.451H266.951H268.451V54.5H266.951H265.451H263.951V56H265.451H266.951H268.451H269.951H271.451V57.5V59H269.951Z" fill="#302F2F"/>
</g>
<path d="M309 134H60C54.4772 134 50 138.477 50 144V222C50 227.523 54.4772 232 60 232H309C314.523 232 319 227.523 319 222V144C319 138.477 314.523 134 309 134Z" fill="#696969"/>
<path d="M119 155H83C77.4772 155 73 159.477 73 165V201C73 206.523 77.4772 211 83 211H119C124.523 211 129 206.523 129 201V165C129 159.477 124.523 155 119 155Z" fill="#D9D9D9"/>
<path d="M286 155H162C156.477 155 152 159.477 152 165V409C152 414.523 156.477 419 162 419H286C291.523 419 296 414.523 296 409V165C296 159.477 291.523 155 286 155Z" fill="#D9D9D9"/>
<g filter="url(#filter2_dddddd_4387_27016)">
<path fill-rule="evenodd" clip-rule="evenodd" d="M281.634 175.51C273.415 176.105 262.535 178.01 251.853 183.237C243.966 187.096 238.537 190.722 233.94 193.792C232.284 194.899 230.735 195.933 229.219 196.88C223.48 200.463 218.278 202.733 209.674 202.733C201.133 202.733 196.432 201.622 192.164 200.513C191.934 200.454 191.706 200.394 191.478 200.335C187.51 199.299 183.79 198.327 177.401 198.327C172.746 198.327 166.617 200.213 161.604 202.129C159.108 203.083 156.908 204.038 155.331 204.754C154.543 205.112 153.911 205.41 153.477 205.618C153.26 205.722 153.092 205.804 152.979 205.859C152.922 205.887 152.879 205.908 152.851 205.923L152.819 205.938L152.809 205.943V205.944C152.809 205.944 152.809 205.944 152.604 205.44L152.809 205.944C152.52 206.088 152.181 205.945 152.051 205.625C151.921 205.304 152.049 204.927 152.338 204.783L152.573 205.363C152.338 204.783 152.337 204.783 152.338 204.783V204.782L152.35 204.777L152.384 204.76C152.414 204.745 152.458 204.723 152.516 204.695C152.632 204.638 152.802 204.555 153.022 204.449C153.463 204.238 154.101 203.936 154.897 203.575C156.489 202.852 158.71 201.889 161.232 200.925C166.254 199.005 172.539 197.054 177.401 197.054C183.924 197.054 187.749 198.053 191.737 199.094C191.965 199.154 192.195 199.214 192.425 199.274C196.639 200.368 201.248 201.46 209.674 201.46C218.035 201.46 223.045 199.275 228.658 195.77C230.136 194.847 231.662 193.828 233.303 192.731C237.91 189.654 243.432 185.966 251.391 182.071C262.235 176.766 273.257 174.841 281.559 174.239C285.713 173.939 289.19 173.969 291.632 174.074C292.853 174.127 293.815 174.199 294.473 174.257C294.803 174.286 295.056 174.313 295.228 174.331C295.314 174.341 295.379 174.348 295.424 174.354C295.446 174.356 295.463 174.358 295.474 174.36L295.488 174.362H295.493C295.493 174.362 295.493 174.362 295.427 174.992C295.463 174.647 295.833 174.424 295.956 174.749C295.992 174.847 296.008 174.956 295.996 175.068C295.96 175.417 295.675 175.668 295.361 175.627H295.358L295.347 175.625C295.337 175.624 295.322 175.622 295.301 175.62C295.26 175.615 295.198 175.608 295.115 175.599C294.95 175.58 294.704 175.555 294.382 175.526C293.738 175.469 292.791 175.399 291.587 175.346C289.179 175.242 285.741 175.212 281.634 175.51Z" fill="#0F934C"/>
<path style="mix-blend-mode:soft-light" fill-rule="evenodd" clip-rule="evenodd" d="M281.634 175.51C273.415 176.105 262.535 178.01 251.853 183.237C243.966 187.096 238.537 190.722 233.94 193.792C232.284 194.899 230.735 195.933 229.219 196.88C223.48 200.463 218.278 202.733 209.674 202.733C201.133 202.733 196.432 201.622 192.164 200.513C191.934 200.454 191.706 200.394 191.478 200.335C187.51 199.299 183.79 198.327 177.401 198.327C172.746 198.327 166.617 200.213 161.604 202.129C159.108 203.083 156.908 204.038 155.331 204.754C154.543 205.112 153.911 205.41 153.477 205.618C153.26 205.722 153.092 205.804 152.979 205.859C152.922 205.887 152.879 205.908 152.851 205.923L152.819 205.938L152.809 205.943V205.944C152.809 205.944 152.809 205.944 152.604 205.44L152.809 205.944C152.52 206.088 152.181 205.945 152.051 205.625C151.921 205.304 152.049 204.927 152.338 204.783L152.573 205.363C152.338 204.783 152.337 204.783 152.338 204.783V204.782L152.35 204.777L152.384 204.76C152.414 204.745 152.458 204.723 152.516 204.695C152.632 204.638 152.802 204.555 153.022 204.449C153.463 204.238 154.101 203.936 154.897 203.575C156.489 202.852 158.71 201.889 161.232 200.925C166.254 199.005 172.539 197.054 177.401 197.054C183.924 197.054 187.749 198.053 191.737 199.094C191.965 199.154 192.195 199.214 192.425 199.274C196.639 200.368 201.248 201.46 209.674 201.46C218.035 201.46 223.045 199.275 228.658 195.77C230.136 194.847 231.662 193.828 233.303 192.731C237.91 189.654 243.432 185.966 251.391 182.071C262.235 176.766 273.257 174.841 281.559 174.239C285.713 173.939 289.19 173.969 291.632 174.074C292.853 174.127 293.815 174.199 294.473 174.257C294.803 174.286 295.056 174.313 295.228 174.331C295.314 174.341 295.379 174.348 295.424 174.354C295.446 174.356 295.463 174.358 295.474 174.36L295.488 174.362H295.493C295.493 174.362 295.493 174.362 295.427 174.992C295.463 174.647 295.833 174.424 295.956 174.749C295.992 174.847 296.008 174.956 295.996 175.068C295.96 175.417 295.675 175.668 295.361 175.627H295.358L295.347 175.625C295.337 175.624 295.322 175.622 295.301 175.62C295.26 175.615 295.198 175.608 295.115 175.599C294.95 175.58 294.704 175.555 294.382 175.526C293.738 175.469 292.791 175.399 291.587 175.346C289.179 175.242 285.741 175.212 281.634 175.51Z" fill="url(#paint0_linear_4387_27016)" fill-opacity="0.4"/>
</g>
<path d="M278 226H170C164.477 226 160 230.477 160 236V257C160 262.523 164.477 267 170 267H278C283.523 267 288 262.523 288 257V236C288 230.477 283.523 226 278 226Z" fill="#C2C2C2"/>
<path d="M278 282H170C164.477 282 160 286.477 160 292V313C160 318.523 164.477 323 170 323H278C283.523 323 288 318.523 288 313V292C288 286.477 283.523 282 278 282Z" fill="#C2C2C2"/>
<path d="M278 342H170C164.477 342 160 346.477 160 352V373C160 378.523 164.477 383 170 383H278C283.523 383 288 378.523 288 373V352C288 346.477 283.523 342 278 342Z" fill="#C2C2C2"/>
<path d="M242 394H204C199.582 394 196 397.582 196 402C196 406.418 199.582 410 204 410H242C246.418 410 250 406.418 250 402C250 397.582 246.418 394 242 394Z" fill="#3EA528"/>
<path d="M288 104H250C245.582 104 242 107.582 242 112C242 116.418 245.582 120 250 120H288C292.418 120 296 116.418 296 112C296 107.582 292.418 104 288 104Z" fill="#D9D9D9"/>
<path d="M81 120C85.4183 120 89 116.418 89 112C89 107.582 85.4183 104 81 104C76.5817 104 73 107.582 73 112C73 116.418 76.5817 120 81 120Z" fill="#D9D9D9"/>
<path d="M127 120C131.418 120 135 116.418 135 112C135 107.582 131.418 104 127 104C122.582 104 119 107.582 119 112C119 116.418 122.582 120 127 120Z" fill="#D9D9D9"/>
<path d="M172 120C176.418 120 180 116.418 180 112C180 107.582 176.418 104 172 104C167.582 104 164 107.582 164 112C164 116.418 167.582 120 172 120Z" fill="#D9D9D9"/>
</g>
<defs>
<filter id="filter0_d_4387_27016" x="33" y="21" width="302" height="435" filterUnits="userSpaceOnUse" color-interpolation-filters="sRGB">
<feFlood flood-opacity="0" result="BackgroundImageFix"/>
<feColorMatrix in="SourceAlpha" type="matrix" values="0 0 0 0 0 0 0 0 0 0 0 0 0 0 0 0 0 0 127 0" result="hardAlpha"/>
<feOffset dy="8"/>
<feGaussianBlur stdDeviation="8"/>
<feColorMatrix type="matrix" values="0 0 0 0 0.188235 0 0 0 0 0.184314 0 0 0 0 0.184314 0 0 0 0.08 0"/>
<feBlend mode="normal" in2="BackgroundImageFix" result="effect1_dropShadow_4387_27016"/>
<feBlend mode="normal" in="SourceGraphic" in2="effect1_dropShadow_4387_27016" result="shape"/>
</filter>
<filter id="filter1_dd_4387_27016" x="17" y="0" width="334" height="140" filterUnits="userSpaceOnUse" color-interpolation-filters="sRGB">
<feFlood flood-opacity="0" result="BackgroundImageFix"/>
<feColorMatrix in="SourceAlpha" type="matrix" values="0 0 0 0 0 0 0 0 0 0 0 0 0 0 0 0 0 0 127 0" result="hardAlpha"/>
<feOffset dy="16"/>
<feGaussianBlur stdDeviation="16"/>
<feColorMatrix type="matrix" values="0 0 0 0 0.254902 0 0 0 0 0.376471 0 0 0 0 0.580392 0 0 0 0.16 0"/>
<feBlend mode="normal" in2="BackgroundImageFix" result="effect1_dropShadow_4387_27016"/>
<feColorMatrix in="SourceAlpha" type="matrix" values="0 0 0 0 0 0 0 0 0 0 0 0 0 0 0 0 0 0 127 0" result="hardAlpha"/>
<feOffset dy="4"/>
<feGaussianBlur stdDeviation="6"/>
<feColorMatrix type="matrix" values="0 0 0 0 0.0862745 0 0 0 0 0.133333 0 0 0 0 0.2 0 0 0 0.12 0"/>
<feBlend mode="normal" in2="effect1_dropShadow_4387_27016" result="effect2_dropShadow_4387_27016"/>
<feBlend mode="normal" in="SourceGraphic" in2="effect2_dropShadow_4387_27016" result="shape"/>
</filter>
<filter id="filter2_dddddd_4387_27016" x="63.9576" y="172.573" width="320.085" height="231.522" filterUnits="userSpaceOnUse" color-interpolation-filters="sRGB">
<feFlood flood-opacity="0" result="BackgroundImageFix"/>
<feColorMatrix in="SourceAlpha" type="matrix" values="0 0 0 0 0 0 0 0 0 0 0 0 0 0 0 0 0 0 127 0" result="hardAlpha"/>
<feOffset dy="2.03802"/>
<feGaussianBlur stdDeviation="1.73232"/>
<feColorMatrix type="matrix" values="0 0 0 0 0.0588235 0 0 0 0 0.576471 0 0 0 0 0.298039 0 0 0 0.06 0"/>
<feBlend mode="normal" in2="BackgroundImageFix" result="effect1_dropShadow_4387_27016"/>
<feColorMatrix in="SourceAlpha" type="matrix" values="0 0 0 0 0 0 0 0 0 0 0 0 0 0 0 0 0 0 127 0" result="hardAlpha"/>
<feOffset dy="8.96729"/>
<feGaussianBlur stdDeviation="3.58692"/>
<feColorMatrix type="matrix" values="0 0 0 0 0.243137 0 0 0 0 0.647059 0 0 0 0 0.156863 0 0 0 0.09 0"/>
<feBlend mode="normal" in2="effect1_dropShadow_4387_27016" result="effect2_dropShadow_4387_27016"/>
<feColorMatrix in="SourceAlpha" type="matrix" values="0 0 0 0 0 0 0 0 0 0 0 0 0 0 0 0 0 0 127 0" result="hardAlpha"/>
<feOffset dy="22.0106"/>
<feGaussianBlur stdDeviation="7.15345"/>
<feColorMatrix type="matrix" values="0 0 0 0 0.0588235 0 0 0 0 0.576471 0 0 0 0 0.298039 0 0 0 0.13 0"/>
<feBlend mode="normal" in2="effect2_dropShadow_4387_27016" result="effect3_dropShadow_4387_27016"/>
<feColorMatrix in="SourceAlpha" type="matrix" values="0 0 0 0 0 0 0 0 0 0 0 0 0 0 0 0 0 0 127 0" result="hardAlpha"/>
<feOffset dy="42.3908"/>
<feGaussianBlur stdDeviation="14.0216"/>
<feColorMatrix type="matrix" values="0 0 0 0 0.0588235 0 0 0 0 0.576471 0 0 0 0 0.298039 0 0 0 0.15 0"/>
<feBlend mode="normal" in2="effect3_dropShadow_4387_27016" result="effect4_dropShadow_4387_27016"/>
<feColorMatrix in="SourceAlpha" type="matrix" values="0 0 0 0 0 0 0 0 0 0 0 0 0 0 0 0 0 0 127 0" result="hardAlpha"/>
<feOffset dy="71.3307"/>
<feGaussianBlur stdDeviation="25.781"/>
<feColorMatrix type="matrix" values="0 0 0 0 0.0588235 0 0 0 0 0.576471 0 0 0 0 0.298039 0 0 0 0.19 0"/>
<feBlend mode="normal" in2="effect4_dropShadow_4387_27016" result="effect5_dropShadow_4387_27016"/>
<feColorMatrix in="SourceAlpha" type="matrix" values="0 0 0 0 0 0 0 0 0 0 0 0 0 0 0 0 0 0 127 0" result="hardAlpha"/>
<feOffset dy="110.053"/>
<feGaussianBlur stdDeviation="44.0212"/>
<feColorMatrix type="matrix" values="0 0 0 0 0.243137 0 0 0 0 0.647059 0 0 0 0 0.156863 0 0 0 0.25 0"/>
<feBlend mode="normal" in2="effect5_dropShadow_4387_27016" result="effect6_dropShadow_4387_27016"/>
<feBlend mode="normal" in="SourceGraphic" in2="effect6_dropShadow_4387_27016" result="shape"/>
</filter>
<linearGradient id="paint0_linear_4387_27016" x1="375.129" y1="190" x2="362.641" y2="128.24" gradientUnits="userSpaceOnUse">
<stop stop-color="#905833"/>
<stop offset="1" stop-color="white"/>
</linearGradient>
<clipPath id="clip0_4387_27016">
<rect width="368" height="452" fill="white"/>
</clipPath>
</defs>
</svg>
